<svg width="88" height="88" viewBox="0 0 88 88" fill="none" xmlns="http://www.w3.org/2000/svg">
<path d="M87.028 43.514C87.028 52.1203 84.476 60.5332 79.6946 67.6891C74.9132 74.8449 68.1172 80.4222 60.1661 83.7157C52.215 87.0092 43.4657 87.8709 35.0249 86.1919C26.584 84.5129 18.8305 80.3686 12.745 74.283C6.65943 68.1975 2.51513 60.444 0.836129 52.0032C-0.842869 43.5623 0.0188544 34.8131 3.31233 26.8619C6.6058 18.9108 12.1831 12.1148 19.3389 7.33343C26.4948 2.55205 34.9078 0 43.514 0C55.0542 0.00132581 66.1214 4.58625 74.2816 12.7464C82.4418 20.9066 87.0267 31.9738 87.028 43.514V43.514Z" fill="url(#paint0_linear_284_4894)"/>
<path d="M62.129 27.384L35.681 53.863L26.569 44.777C25.7527 43.9628 24.6465 43.5059 23.4935 43.5068C22.3405 43.5078 21.235 43.9664 20.42 44.782C20.0155 45.1863 19.6946 45.6662 19.4757 46.1946C19.2568 46.7229 19.1441 47.2891 19.1441 47.861C19.1441 48.4329 19.2568 48.9992 19.4757 49.5275C19.6946 50.0558 20.0155 50.5358 20.42 50.94L32.611 63.098C33.4276 63.9126 34.5342 64.3697 35.6876 64.3688C36.841 64.3678 37.9468 63.909 38.762 63.093L68.285 33.535C69.1004 32.7188 69.5585 31.6122 69.5585 30.4585C69.5585 29.3048 69.1004 28.1982 68.285 27.382C67.8808 26.9778 67.4008 26.6572 66.8726 26.4386C66.3444 26.2199 65.7783 26.1075 65.2066 26.1077C64.6349 26.1079 64.0689 26.2207 63.5408 26.4397C63.0128 26.6587 62.5331 26.9796 62.129 27.384Z" fill="white"/>
<defs>
<linearGradient id="paint0_linear_284_4894" x1="43.514" y1="0" x2="43.514" y2="87.028" gradientUnits="userSpaceOnUse">
<stop stop-color="#42D778"/>
<stop offset="0.996" stop-color="#34B171"/>
<stop offset="1" stop-color="#34B171"/>
</linearGradient>
</defs>
</svg>
