<svg width="18" height="24" viewBox="0 0 18 24" fill="none" xmlns="http://www.w3.org/2000/svg">
<path d="M8.6499 15.5882C10.8599 15.5882 12.6499 13.6441 12.6499 11.2438V5.27008C12.6499 2.86974 10.8599 0.925583 8.6499 0.925583C6.4399 0.925583 4.6499 2.86974 4.6499 5.27008V11.2438C4.6499 13.6441 6.4399 15.5882 8.6499 15.5882Z" stroke="#135DE3" stroke-width="1.5" stroke-linecap="round" stroke-linejoin="round"/>
<path d="M1 9.23434V11.0807C1 15.6642 4.43 19.3896 8.64999 19.3896C12.87 19.3896 16.3 15.6642 16.3 11.0807V9.23434" stroke="#135DE3" stroke-width="1.5" stroke-linecap="round" stroke-linejoin="round"/>
<path d="M7.25977 5.73725C8.15976 5.37886 9.13976 5.37886 10.0398 5.73725" stroke="#135DE3" stroke-width="1.5" stroke-linecap="round" stroke-linejoin="round"/>
<path d="M7.8501 8.03951C8.38009 7.88746 8.93009 7.88746 9.46008 8.03951" stroke="#135DE3" stroke-width="1.5" stroke-linecap="round" stroke-linejoin="round"/>
<path d="M8.6499 19.3897V22.6481" stroke="#135DE3" stroke-width="1.5" stroke-linecap="round" stroke-linejoin="round"/>
</svg>
