<svg width="43" height="43" viewBox="0 0 43 43" fill="none" xmlns="http://www.w3.org/2000/svg">
<rect width="43" height="43" rx="21.5" fill="#135DE3" fill-opacity="0.13"/>
<path fill-rule="evenodd" clip-rule="evenodd" d="M17.7717 28.1246C17.7003 28.1211 17.6212 28.1176 17.5337 28.1155C17.0171 28.0994 16.3206 28.0994 15.3498 28.0994C14.3782 28.0994 13.6817 28.0994 13.1658 28.1155C13.0783 28.1183 12.9992 28.1211 12.9278 28.1246C13.0161 28.7037 13.309 29.2319 13.7533 29.6136C14.1976 29.9953 14.764 30.2052 15.3498 30.2052C15.9355 30.2052 16.5019 29.9953 16.9462 29.6136C17.3905 29.2319 17.6834 28.7037 17.7717 28.1246ZM15.3498 31.5993C15.8553 31.5993 16.3559 31.4997 16.823 31.3062C17.2901 31.1128 17.7145 30.8292 18.072 30.4717C18.4295 30.1142 18.7131 29.6898 18.9066 29.2227C19.1 28.7556 19.1996 28.255 19.1996 27.7494C19.1996 27.4386 19.1996 27.2195 19.0995 27.0656C18.8622 26.6995 18.0601 26.6995 15.3498 26.6995C11.4999 26.6995 11.4999 26.6995 11.4999 27.7494C11.4999 28.7705 11.9055 29.7497 12.6275 30.4717C13.3495 31.1937 14.3287 31.5993 15.3498 31.5993Z" fill="#135DE3"/>
<path fill-rule="evenodd" clip-rule="evenodd" d="M27.0218 16.1997H30.3992V24.5994H28.9993V17.5997H28.1768L26.1868 27.8823L24.812 27.6163L27.0218 16.1997Z" fill="#135DE3"/>
<path fill-rule="evenodd" clip-rule="evenodd" d="M32.1128 30.1559C32.4288 30.0955 32.7298 29.9734 32.9987 29.7965C33.2675 29.6197 33.4989 29.3917 33.6796 29.1255C33.8603 28.8592 33.9868 28.56 34.0518 28.2448C34.1169 27.9297 34.1192 27.6049 34.0587 27.2888L35.4334 27.0256C35.6254 28.0285 35.4111 29.0665 34.8377 29.9114C34.2643 30.7562 33.3788 31.3387 32.376 31.5307C31.3731 31.7226 30.3351 31.5083 29.4902 30.935C28.6453 30.3616 28.0629 29.476 27.8709 28.4732L29.2457 28.21C29.3061 28.526 29.4282 28.8271 29.605 29.0959C29.7818 29.3648 30.0099 29.5961 30.2761 29.7769C30.5424 29.9576 30.8416 30.084 31.1567 30.1491C31.4719 30.2141 31.7967 30.2164 32.1128 30.1559Z" fill="#135DE3"/>
<path fill-rule="evenodd" clip-rule="evenodd" d="M33.4588 25.168C32.9976 24.845 32.4582 24.6515 31.8969 24.6077C31.3355 24.5639 30.7726 24.6714 30.2669 24.919C29.7612 25.1665 29.331 25.5452 29.0213 26.0154C28.7116 26.4856 28.5336 27.0303 28.5058 27.5927L34.555 26.5259C34.3248 25.9791 33.9448 25.5084 33.4588 25.168ZM30.8619 23.2676C31.9097 23.0829 32.9891 23.2713 33.9124 23.7999C34.8358 24.3286 35.5446 25.1641 35.9157 26.1613C36.2349 27.0166 35.5951 27.7642 34.8756 27.8902L28.6717 28.985C27.9528 29.111 27.096 28.628 27.1023 27.7152C27.1101 26.6512 27.4904 25.6236 28.1773 24.8111C28.8642 23.9985 29.8141 23.4523 30.8619 23.2676Z" fill="#135DE3"/>
<path fill-rule="evenodd" clip-rule="evenodd" d="M19.8996 18.9998H13.5998C13.4142 18.9998 13.2361 19.0736 13.1049 19.2048C12.9736 19.3361 12.8998 19.5141 12.8998 19.6998V21.0997H20.5996V19.6998C20.5996 19.5141 20.5258 19.3361 20.3946 19.2048C20.2633 19.0736 20.0852 18.9998 19.8996 18.9998ZM13.5998 17.5999C13.0429 17.5999 12.5088 17.8211 12.1149 18.2149C11.7211 18.6087 11.4999 19.1428 11.4999 19.6998V21.7997C11.4999 21.9854 11.5736 22.1634 11.7049 22.2947C11.8362 22.4259 12.0142 22.4997 12.1999 22.4997H21.2995C21.4852 22.4997 21.6632 22.4259 21.7945 22.2947C21.9258 22.1634 21.9995 21.9854 21.9995 21.7997V19.6998C21.9995 19.1428 21.7783 18.6087 21.3845 18.2149C20.9907 17.8211 20.4565 17.5999 19.8996 17.5999H13.5998Z" fill="#135DE3"/>
<path fill-rule="evenodd" clip-rule="evenodd" d="M19.8996 22.4998H15.06C12.2789 22.4998 10.0537 24.3442 9.52175 26.6997H19.8219C19.8496 26.7011 19.8769 26.6932 19.8996 26.6773V22.4998ZM15.06 21.0999C11.1611 21.0999 8 24.0943 8 27.7888C8 27.9603 8.14699 28.0996 8.32899 28.0996H19.8219C20.6381 28.0996 21.2995 27.4731 21.2995 26.6997V21.6598C21.2995 21.3504 21.0349 21.0999 20.7088 21.0999H15.06Z" fill="#135DE3"/>
<path fill-rule="evenodd" clip-rule="evenodd" d="M29.6992 13.4H28.2993C27.928 13.4 27.5719 13.5474 27.3094 13.81C27.0468 14.0725 26.8993 14.4286 26.8993 14.7999C26.8993 15.1712 27.0468 15.5273 27.3094 15.7898C27.5719 16.0524 27.928 16.1999 28.2993 16.1999H29.6992V13.4ZM28.2993 12C27.5567 12 26.8445 12.295 26.3194 12.8201C25.7944 13.3452 25.4994 14.0573 25.4994 14.7999C25.4994 15.5425 25.7944 16.2546 26.3194 16.7797C26.8445 17.3048 27.5567 17.5998 28.2993 17.5998H30.6687C30.9067 17.5998 31.0992 17.4066 31.0992 17.1693V12.4305C31.0992 12.3163 31.0538 12.2068 30.9731 12.1261C30.8924 12.0454 30.7829 12 30.6687 12H28.2993Z" fill="#135DE3"/>
<path d="M22.9417 12.7L26.3891 13.3061L26.1462 14.6851L22.6995 14.0789L22.9417 12.7Z" fill="#135DE3"/>
<path fill-rule="evenodd" clip-rule="evenodd" d="M27.5993 28.0994H19.1996V26.6995H27.5993V28.0994Z" fill="#135DE3"/>
<path fill-rule="evenodd" clip-rule="evenodd" d="M26.1994 24.5994H19.8996V23.1995H26.1994V24.5994Z" fill="#135DE3"/>
</svg>
